<svg width="851" height="315" viewBox="0 0 851 315" fill="none" xmlns="http://www.w3.org/2000/svg">
<rect width="851" height="315" fill="black"/>
<path d="M173.456 135.972C171.38 134.85 169.205 133.921 166.959 133.199C162.257 131.675 157.283 131.181 152.374 131.75C147.715 132.291 143.191 133.663 139.015 135.799C138.622 135.991 138.248 136.183 137.884 136.384C138.086 136.02 138.287 135.665 138.469 135.3C140.835 130.92 142.273 126.098 142.695 121.137C142.879 118.789 142.818 116.428 142.513 114.093C142.174 111.347 141.531 108.647 140.596 106.042C139.905 104.152 139.086 102.312 138.143 100.534C137.884 100.045 137.616 99.5749 137.348 99.1143C137.856 99.3829 138.354 99.642 138.862 99.8915C141.643 101.267 144.568 102.333 147.582 103.068L148.263 103.221C148.665 103.308 149.077 103.394 149.489 103.461C150.505 103.663 151.54 103.807 152.585 103.912C153.798 104.035 155.016 104.096 156.236 104.094C157.471 104.094 158.706 104.03 159.935 103.903C161.133 103.778 162.292 103.605 163.385 103.384C166.944 102.689 170.394 101.514 173.638 99.8915C173.78 99.8322 173.917 99.7649 174.051 99.69C174.051 99.69 174.549 99.4309 174.741 99.3158L174.405 99.9491L174.194 100.352C172.456 103.688 171.238 107.27 170.582 110.975C170.409 111.934 170.275 112.99 170.179 113.978C169.952 116.56 169.997 119.159 170.313 121.732C170.419 122.691 170.582 123.651 170.764 124.61C170.879 125.253 171.022 125.896 171.176 126.529C171.329 127.163 171.454 127.604 171.607 128.132C172.282 130.507 173.148 132.824 174.194 135.06C174.511 135.751 174.836 136.403 175.153 136.979C174.597 136.615 174.003 136.279 173.456 135.972Z" fill="white"/>
<path d="M44.8988 198.91C45.0216 200.476 45.5401 201.986 46.4056 203.297C47.09 204.336 47.9712 205.23 48.9992 205.928C47.5611 203.696 46.1942 201.356 44.8988 198.91ZM199.926 110.958C199.793 109.618 199.59 108.285 199.317 106.966C197.969 100.137 194.985 93.7373 190.622 88.3187C189.627 87.0723 188.566 85.8802 187.443 84.7476C186.284 83.5802 185.061 82.4788 183.779 81.4486C178.339 77.1105 171.932 74.1537 165.105 72.8299C163.845 72.5743 162.569 72.3846 161.293 72.2444C158.211 71.9185 155.103 71.9185 152.021 72.2444C150.745 72.3846 149.485 72.5743 148.217 72.8217C144.671 73.5272 141.228 74.6743 137.966 76.2361C137.143 76.6485 136.253 77.0609 135.414 77.5722C133.359 78.721 131.403 80.0397 129.568 81.5146C128.744 82.1661 127.978 82.8424 127.213 83.5517C126.867 83.8651 126.521 84.2115 126.183 84.5414C126.085 84.6404 125.994 84.7146 125.903 84.8136C124.775 85.9517 122.61 88.2363 122.61 88.2363L121.21 89.8858L116.336 95.659L115.183 97.0281L97.6943 118.026L79.0611 140.295L72.861 147.882L60.4361 162.728L59.8515 163.437C59.6772 163.635 59.5491 163.87 59.4765 164.124C59.4039 164.378 59.3885 164.645 59.4315 164.905C59.4741 165.199 59.5859 165.478 59.7576 165.721C59.9293 165.963 60.1561 166.16 60.4191 166.297C60.6821 166.434 60.9739 166.507 61.2704 166.508C61.5668 166.51 61.8594 166.441 62.124 166.307L75.5123 159.594C75.8973 159.399 76.3434 159.363 76.7545 159.494C77.1657 159.625 77.509 159.913 77.7107 160.295C77.8586 160.567 77.927 160.875 77.9081 161.184C77.8891 161.494 77.7836 161.791 77.6037 162.043L75.8498 164.517L53.0832 196.493L52.6221 197.145C52.3953 197.441 52.2677 197.801 52.2573 198.174C52.247 198.548 52.3545 198.915 52.5645 199.223C52.6917 199.431 52.8589 199.612 53.0565 199.756C53.254 199.899 53.4779 200.002 53.7153 200.058C53.9527 200.114 54.1988 200.122 54.4394 200.082C54.68 200.042 54.9103 199.955 55.117 199.825L55.9404 199.33L71.7741 189.664C72.0255 189.5 72.3142 189.402 72.6135 189.378C72.9129 189.355 73.2132 189.408 73.4867 189.532C73.915 189.729 74.2574 190.075 74.4501 190.505L74.7136 190.761L74.5736 190.885C74.6422 191.174 74.6383 191.477 74.5621 191.764C74.486 192.052 74.34 192.317 74.1372 192.534L68.8099 198.571L55.9651 213.038L52.2269 217.277L51.0577 218.596L44.6353 225.879C44.1672 226.404 43.921 227.09 43.9486 227.793C43.9763 228.497 44.2756 229.162 44.7835 229.648V229.689C45.2365 230.118 45.8217 230.379 46.4429 230.43C47.064 230.481 47.684 230.319 48.2006 229.97L56.8132 224.089L62.8486 219.982L70.9754 214.431L79.1352 208.914L79.7774 208.477C80.0824 208.261 80.4518 208.155 80.8248 208.177C81.1978 208.199 81.5523 208.347 81.83 208.597C82.1078 208.848 82.2922 209.185 82.3531 209.554C82.4141 209.924 82.3478 210.303 82.1652 210.629C82.0892 210.774 81.989 210.906 81.8688 211.017L80.222 212.625C79.8714 212.949 79.658 213.396 79.6254 213.873C79.5928 214.35 79.7436 214.821 80.0468 215.19C80.3501 215.559 80.7828 215.798 81.2563 215.858C81.7298 215.918 82.2081 215.794 82.5934 215.512L101.095 203.553L106.241 200.254L117.719 192.806L126.002 187.446L134.294 182.06L142.593 176.699L144.973 175.148L167.484 160.55L174.623 155.932L175.768 155.181C175.768 155.181 179.267 152.963 182.001 150.983C182.701 150.488 183.335 150.018 183.853 149.598C184.372 149.177 185.097 148.583 185.698 148.039L188.44 145.301L189.131 144.6C189.666 144.006 190.185 143.387 190.696 142.761C192.109 140.998 193.376 139.122 194.483 137.152C195.01 136.237 195.504 135.297 195.957 134.348C197.518 131.082 198.663 127.632 199.366 124.08C199.621 122.752 199.827 121.408 199.967 120.063C200.264 117.035 200.251 113.984 199.926 110.958ZM170.959 133.276C169.186 132.313 167.328 131.515 165.41 130.892C161.393 129.594 157.145 129.169 152.952 129.647C148.949 130.114 145.062 131.292 141.474 133.127C141.144 133.284 140.815 133.457 140.51 133.631L141.013 132.699C143.039 128.932 144.272 124.789 144.635 120.525C144.796 118.508 144.746 116.479 144.487 114.472C144.187 112.109 143.62 109.787 142.799 107.552C142.213 105.925 141.508 104.342 140.691 102.818C140.469 102.397 140.239 101.993 140.016 101.597L141.309 102.265C143.696 103.447 146.206 104.363 148.794 104.995L149.378 105.127C149.724 105.201 150.078 105.276 150.432 105.333C151.313 105.498 152.194 105.63 153.092 105.721C154.134 105.826 155.181 105.878 156.229 105.878C157.291 105.878 158.352 105.821 159.407 105.704C160.402 105.611 161.392 105.465 162.371 105.267C165.427 104.67 168.388 103.66 171.173 102.265C171.292 102.214 171.407 102.156 171.519 102.092C171.519 102.092 171.947 101.869 172.112 101.77L171.832 102.315L171.643 102.661C170.157 105.511 169.113 108.57 168.547 111.733C168.398 112.558 168.291 113.465 168.209 114.315C168.007 116.534 168.042 118.768 168.316 120.979C168.415 121.804 168.547 122.628 168.711 123.453C168.802 124.006 168.925 124.558 169.065 125.103C169.205 125.647 169.296 126.026 169.428 126.472C170.007 128.516 170.75 130.51 171.651 132.435C171.922 133.028 172.202 133.589 172.474 134.084C171.997 133.861 171.478 133.54 170.959 133.276Z" fill="url(#paint0_linear_4363_37)"/>
<path d="M121.334 78.9578L121.013 79.263L120.667 79.6176C119.481 80.8053 117.373 83.0651 117.25 83.1641L117.126 83.296L115.578 85.094L115.446 85.2589C113.882 85.16 112.318 85.1105 110.728 85.1105C90.5791 85.1323 71.2613 93.1595 57.0135 107.431C42.7658 121.702 34.7518 141.052 34.73 161.235C34.73 173.812 38.8469 187.371 44.8988 198.893C46.1943 201.334 47.5666 203.674 49.0157 205.912C49.5015 206.654 49.9873 207.388 50.4896 208.106L46.7267 212.369L46.1751 212.996C35.8596 200.102 29.627 184.414 28.2774 167.946C26.9279 151.478 30.523 134.981 38.6011 120.575C46.6793 106.168 58.8719 94.5083 73.6135 87.0929C88.3552 79.6775 104.973 76.8445 121.334 78.9578Z" fill="url(#paint1_linear_4363_37)"/>
<path d="M193.553 161.235C193.572 176.447 189.409 191.371 181.52 204.369C173.631 217.368 162.321 227.94 148.83 234.926C135.339 241.912 120.189 245.042 105.039 243.972C89.8899 242.903 75.327 237.676 62.9474 228.864L68.8593 224.84C74.0695 228.247 79.6704 231.013 85.5411 233.079C97.0008 237.104 109.256 238.321 121.282 236.627C133.307 234.933 144.753 230.377 154.659 223.342C164.566 216.307 172.646 206.997 178.222 196.191C183.799 185.386 186.709 173.399 186.71 161.235C186.71 160.41 186.71 159.585 186.71 158.761L190.63 155.462C190.984 155.157 191.354 154.827 191.75 154.464L191.857 154.365L192.836 153.375C193.253 155.976 193.492 158.602 193.553 161.235Z" fill="url(#paint2_linear_4363_37)"/>
<path d="M276.973 207.192C247.245 207.192 241.072 191.213 241.072 177.75V141.01C241.072 127.547 247.245 111.567 276.973 111.567H344.995C374.724 111.567 380.896 127.547 380.896 141.01V177.624C380.896 191.087 374.724 207.066 344.995 207.066H276.973V207.192ZM277.351 134.215C273.32 134.215 270.045 137.487 270.045 141.513V178.63C270.045 182.657 273.32 185.928 277.351 185.928H344.743C348.774 185.928 352.049 182.657 352.049 178.63V141.513C352.049 137.487 348.774 134.215 344.743 134.215H277.351Z" fill="white"/>
<path d="M544.48 208.45V187.06H648.026C652.057 187.06 655.332 183.789 655.332 179.762V142.771C655.332 138.744 652.057 135.473 648.026 135.473H544.48V112.825H648.403C678.132 112.825 684.304 128.805 684.304 142.267V178.882C684.304 192.345 678.132 208.324 648.403 208.324H544.48V208.45Z" fill="white"/>
<path d="M504.343 205.932V142.266C504.343 138.618 499.809 136.73 490.991 136.73H435.817C426.999 136.73 422.465 138.618 422.465 142.266V205.932H393.492V141.763C393.492 127.419 400.672 110.308 435.187 110.308H490.235C524.876 110.308 532.056 127.419 532.056 141.763V205.932H504.343Z" fill="white"/>
<path d="M733.062 207.192C702.83 207.192 696.531 191.213 696.531 177.75V111.567H725.504V178.505C725.504 182.531 728.779 185.802 732.81 185.802H823.758V207.192H733.062Z" fill="white"/>
<defs>
<linearGradient id="paint0_linear_4363_37" x1="44.2236" y1="150.797" x2="199.433" y2="150.797" gradientUnits="userSpaceOnUse">
<stop stop-color="#E3684D"/>
<stop offset="1" stop-color="#F0855E"/>
</linearGradient>
<linearGradient id="paint1_linear_4363_37" x1="28.1205" y1="144.802" x2="120.946" y2="144.802" gradientUnits="userSpaceOnUse">
<stop stop-color="#E3684D"/>
<stop offset="1" stop-color="#F0855E"/>
</linearGradient>
<linearGradient id="paint2_linear_4363_37" x1="62.3484" y1="198.645" x2="193.566" y2="198.645" gradientUnits="userSpaceOnUse">
<stop stop-color="#E3684D"/>
<stop offset="1" stop-color="#F0855E"/>
</linearGradient>
</defs>
</svg>
