<svg width="3698" height="800" viewBox="0 0 3698 800" fill="none" xmlns="http://www.w3.org/2000/svg">
<path d="M675.837 297.235C666.191 292.021 656.085 287.708 645.649 284.35C623.802 277.271 600.691 274.975 577.881 277.617C556.237 280.134 535.217 286.506 515.813 296.432C513.987 297.324 512.251 298.216 510.559 299.152C511.494 297.458 512.429 295.808 513.275 294.114C524.267 273.762 530.951 251.36 532.911 228.305C533.764 217.397 533.481 206.429 532.065 195.58C530.491 182.818 527.504 170.272 523.16 158.172C519.949 149.391 516.14 140.84 511.761 132.58C510.559 130.306 509.312 128.122 508.065 125.981C510.425 127.23 512.741 128.434 515.1 129.593C528.025 135.986 541.613 140.935 555.619 144.351L558.78 145.064C560.65 145.465 562.565 145.867 564.479 146.179C569.199 147.115 574.008 147.784 578.861 148.274C584.498 148.844 590.16 149.127 595.825 149.121C601.565 149.118 607.302 148.82 613.012 148.23C618.578 147.65 623.965 146.848 629.041 145.822C645.581 142.592 661.607 137.132 676.683 129.593C677.339 129.317 677.978 129.004 678.598 128.657C678.598 128.657 680.913 127.453 681.804 126.918L680.245 129.86L679.266 131.733C671.189 147.231 665.528 163.876 662.48 181.089C661.678 185.548 661.055 190.452 660.61 195.045C659.553 207.042 659.762 219.117 661.233 231.07C661.723 235.528 662.48 239.987 663.326 244.445C663.86 247.433 664.528 250.42 665.24 253.363C665.953 256.305 666.532 258.356 667.244 260.808C670.383 271.844 674.403 282.609 679.266 292.999C680.735 296.209 682.249 299.241 683.718 301.916C681.136 300.222 678.375 298.662 675.837 297.235Z" fill="white"/>
<path d="M78.5168 589.669C79.0874 596.95 81.4966 603.965 85.5178 610.056C88.6976 614.882 92.792 619.035 97.5687 622.281C90.8865 611.908 84.5359 601.038 78.5168 589.669ZM798.818 181.014C798.202 174.786 797.257 168.595 795.987 162.467C789.727 130.734 775.863 101 755.588 75.823C750.966 70.0314 746.036 64.4924 740.821 59.23C735.437 53.8058 729.753 48.6883 723.797 43.9016C698.518 23.7455 668.751 10.0071 637.03 3.85616C631.177 2.66821 625.247 1.78682 619.317 1.13537C604.998 -0.378455 590.559 -0.378455 576.24 1.13537C570.31 1.78682 564.456 2.66821 558.565 3.81784C542.09 7.09617 526.089 12.4258 510.935 19.6827C507.109 21.5988 502.978 23.5148 499.075 25.8907C489.528 31.2281 480.442 37.3553 471.913 44.2082C468.087 47.2355 464.529 50.3779 460.971 53.6735C459.365 55.1297 457.758 56.7391 456.189 58.272C455.73 58.7318 455.309 59.0767 454.889 59.5366C449.647 64.8249 439.586 75.4398 439.586 75.4398L433.082 83.104L410.434 109.929L405.078 116.29L323.82 213.855L237.245 317.322L208.437 352.577L150.708 421.555L147.991 424.851C147.182 425.772 146.587 426.862 146.249 428.041C145.912 429.221 145.84 430.461 146.04 431.672C146.238 433.037 146.757 434.336 147.555 435.461C148.353 436.585 149.407 437.504 150.629 438.14C151.851 438.777 153.207 439.113 154.584 439.121C155.961 439.129 157.321 438.809 158.55 438.186L220.756 406.993C222.545 406.087 224.618 405.921 226.528 406.531C228.438 407.14 230.033 408.475 230.971 410.25C231.658 411.515 231.976 412.947 231.888 414.384C231.8 415.821 231.31 417.204 230.473 418.374L222.325 429.871L116.544 578.441L114.402 581.469C113.348 582.845 112.755 584.52 112.707 586.254C112.659 587.988 113.158 589.693 114.134 591.126C114.725 592.094 115.502 592.935 116.42 593.601C117.338 594.266 118.378 594.743 119.481 595.003C120.584 595.263 121.727 595.302 122.845 595.117C123.963 594.931 125.033 594.525 125.994 593.923L129.819 591.624L203.387 546.712C204.556 545.948 205.897 545.491 207.288 545.384C208.679 545.277 210.074 545.523 211.345 546.098C213.335 547.012 214.926 548.619 215.821 550.62L217.045 551.808L216.395 552.383C216.714 553.729 216.695 555.133 216.342 556.47C215.988 557.807 215.31 559.036 214.367 560.047L189.615 588.098L129.934 655.313L112.565 675.01L107.133 681.142L77.2926 714.979C75.1176 717.418 73.9736 720.607 74.1021 723.875C74.2306 727.142 75.6215 730.232 77.9812 732.492V732.683C80.0858 734.676 82.8051 735.89 85.6911 736.127C88.5771 736.364 91.4576 735.609 93.8578 733.986L133.875 706.663L161.917 687.58L199.677 661.79L237.589 636.153L240.573 634.122C241.991 633.117 243.707 632.626 245.44 632.728C247.173 632.83 248.82 633.519 250.11 634.682C251.401 635.845 252.258 637.414 252.541 639.129C252.824 640.845 252.516 642.606 251.668 644.124C251.315 644.798 250.849 645.407 250.29 645.925L242.639 653.397C241.01 654.904 240.018 656.978 239.867 659.194C239.716 661.41 240.416 663.6 241.825 665.315C243.234 667.03 245.244 668.14 247.444 668.418C249.644 668.696 251.867 668.121 253.657 666.81L339.62 611.244L363.531 595.916L416.861 561.312L455.348 536.403L493.872 511.38L532.435 486.471L543.492 479.267L648.086 411.438L681.255 389.979L686.573 386.491C686.573 386.491 702.832 376.183 715.533 366.986C718.785 364.687 721.731 362.502 724.141 360.548C726.551 358.594 729.918 355.835 732.71 353.305L745.45 340.583L748.664 337.326C751.15 334.566 753.561 331.692 755.932 328.78C762.5 320.591 768.386 311.875 773.531 302.722C775.979 298.468 778.274 294.099 780.379 289.693C787.629 274.515 792.95 258.487 796.217 241.983C797.403 235.813 798.359 229.567 799.01 223.321C800.391 209.249 800.327 195.073 798.818 181.014ZM664.231 284.711C655.991 280.238 647.36 276.531 638.445 273.636C619.782 267.601 600.048 265.628 580.563 267.85C561.967 270.018 543.907 275.495 527.232 284.021C525.702 284.749 524.172 285.554 522.756 286.359L525.09 282.028C534.506 264.527 540.235 245.276 541.923 225.467C542.669 216.092 542.438 206.665 541.234 197.339C539.838 186.36 537.207 175.575 533.392 165.188C530.665 157.627 527.392 150.275 523.598 143.191C522.565 141.237 521.494 139.359 520.461 137.52L526.467 140.624C537.56 146.116 549.222 150.37 561.243 153.308L563.959 153.921C565.566 154.266 567.211 154.611 568.856 154.879C572.949 155.646 577.043 156.259 581.213 156.68C586.056 157.168 590.921 157.411 595.789 157.408C600.722 157.412 605.652 157.143 610.556 156.604C615.179 156.169 619.777 155.492 624.329 154.573C638.528 151.796 652.285 147.104 665.225 140.624C665.776 140.386 666.312 140.118 666.832 139.819C666.832 139.819 668.821 138.784 669.587 138.325L668.286 140.854L667.406 142.463C660.505 155.702 655.654 169.916 653.021 184.616C652.333 188.448 651.835 192.664 651.453 196.611C650.512 206.92 650.679 217.301 651.95 227.574C652.409 231.406 653.021 235.238 653.786 239.071C654.207 241.638 654.781 244.206 655.431 246.735C656.082 249.264 656.503 251.027 657.115 253.096C659.805 262.596 663.26 271.861 667.444 280.802C668.707 283.561 670.007 286.167 671.27 288.466C669.051 287.432 666.641 285.937 664.231 284.711Z" fill="url(#paint0_linear_4278_45)"/>
<path d="M433.656 32.3287L432.164 33.7466L430.557 35.3944C425.048 40.9126 415.254 51.4125 414.681 51.8724L414.107 52.4855L406.914 60.8395L406.302 61.6059C399.034 61.1461 391.765 60.9162 384.381 60.9162C290.761 61.0176 201.005 98.3152 134.805 164.625C68.6061 230.936 31.3709 320.842 31.2696 414.619C31.2696 473.059 50.3981 536.058 78.5169 589.593C84.536 600.936 90.9122 611.806 97.6454 622.204C99.9026 625.653 102.16 629.063 104.493 632.397L87.01 652.209L84.4468 655.122C36.518 595.21 7.55949 522.316 1.28906 445.799C-4.98137 369.282 11.7224 292.634 49.256 225.695C86.7896 158.757 143.44 104.582 211.934 70.1273C280.428 35.6724 357.64 22.5096 433.656 32.3287Z" fill="url(#paint1_linear_4278_45)"/>
<path d="M769.208 414.619C769.296 485.3 749.953 554.641 713.299 615.038C676.645 675.435 624.096 724.556 561.414 757.015C498.731 789.473 428.336 804.016 357.947 799.048C287.559 794.08 219.895 769.793 162.376 728.851L189.844 710.151C214.053 725.982 240.076 738.835 267.353 748.433C320.598 767.136 377.541 772.788 433.415 764.917C489.289 757.046 542.468 735.881 588.497 703.193C634.527 670.505 672.068 627.246 697.978 577.039C723.887 526.832 737.411 471.137 737.416 414.619C737.416 410.787 737.416 406.955 737.416 403.123L755.626 387.794C757.271 386.376 758.993 384.844 760.829 383.157L761.327 382.698L765.879 378.099C767.815 390.183 768.927 402.384 769.208 414.619Z" fill="url(#paint2_linear_4278_45)"/>
<path d="M1156.81 628.154C1018.68 628.154 990 553.908 990 491.354V320.646C990 258.092 1018.68 183.846 1156.81 183.846H1472.86C1610.98 183.846 1639.66 258.092 1639.66 320.646V490.769C1639.66 553.323 1610.98 627.569 1472.86 627.569H1156.81V628.154ZM1158.56 289.077C1139.83 289.077 1124.61 304.277 1124.61 322.985V495.446C1124.61 514.154 1139.83 529.354 1158.56 529.354H1471.69C1490.42 529.354 1505.63 514.154 1505.63 495.446V322.985C1505.63 304.277 1490.42 289.077 1471.69 289.077H1158.56Z" fill="white"/>
<path d="M2399.72 634.001V534.616H2880.82C2899.55 534.616 2914.77 519.416 2914.77 500.708V328.831C2914.77 310.124 2899.55 294.924 2880.82 294.924H2399.72V189.693H2882.58C3020.7 189.693 3049.38 263.939 3049.38 326.493V496.616C3049.38 559.17 3020.7 633.416 2882.58 633.416H2399.72V634.001Z" fill="white"/>
<path d="M2213.24 622.308V326.492C2213.24 309.538 2192.17 300.769 2151.2 300.769H1894.85C1853.88 300.769 1832.81 309.538 1832.81 326.492V622.308H1698.19V324.154C1698.19 257.508 1731.55 178 1891.92 178H2147.69C2308.64 178 2342 257.508 2342 324.154V622.308H2213.24Z" fill="white"/>
<path d="M3275.93 628.153C3135.46 628.153 3106.19 553.907 3106.19 491.353V183.846H3240.81V494.861C3240.81 513.569 3256.03 528.769 3274.76 528.769H3697.33V628.153H3275.93Z" fill="white"/>
<defs>
<linearGradient id="paint0_linear_4278_45" x1="75.3797" y1="366.12" x2="796.531" y2="366.12" gradientUnits="userSpaceOnUse">
<stop stop-color="#E3684D"/>
<stop offset="1" stop-color="#F0855E"/>
</linearGradient>
<linearGradient id="paint1_linear_4278_45" x1="0.560019" y1="338.265" x2="431.855" y2="338.265" gradientUnits="userSpaceOnUse">
<stop stop-color="#E3684D"/>
<stop offset="1" stop-color="#F0855E"/>
</linearGradient>
<linearGradient id="paint2_linear_4278_45" x1="159.593" y1="588.442" x2="769.267" y2="588.442" gradientUnits="userSpaceOnUse">
<stop stop-color="#E3684D"/>
<stop offset="1" stop-color="#F0855E"/>
</linearGradient>
</defs>
</svg>
